<?xml version="1.0" standalone="no"?>
<!DOCTYPE svg PUBLIC "-//W3C//DTD SVG 20010904//EN"
 "http://www.w3.org/TR/2001/REC-SVG-20010904/DTD/svg10.dtd">
<svg version="1.0" xmlns="http://www.w3.org/2000/svg"
 width="512.000000pt" height="512.000000pt" viewBox="0 0 512.000000 512.000000"
 preserveAspectRatio="xMidYMid meet">

<g transform="translate(0.000000,512.000000) scale(0.100000,-0.100000)"
fill="#000000" stroke="none">
<path d="M2342 5104 c-240 -35 -479 -131 -674 -271 -83 -60 -108 -96 -108
-160 0 -116 138 -184 236 -116 161 111 243 155 364 196 138 47 232 62 400 62
167 0 261 -15 400 -62 99 -34 235 -104 318 -164 77 -57 96 -63 158 -56 131 14
168 180 59 270 -81 66 -269 172 -387 217 -227 87 -523 120 -766 84z"/>
<path d="M2395 4506 c-180 -35 -381 -138 -482 -248 -97 -104 -35 -258 105
-258 39 0 88 26 142 75 123 113 350 169 528 131 87 -18 202 -71 257 -119 22
-19 58 -46 79 -61 113 -76 260 26 225 157 -28 103 -247 251 -454 307 -103 28
-300 35 -400 16z"/>
<path d="M2486 3897 c-72 -41 -95 -121 -56 -197 23 -45 80 -80 130 -80 77 0
150 74 150 152 0 75 -74 148 -150 148 -19 0 -53 -10 -74 -23z"/>
<path d="M243 3320 c-64 -13 -116 -44 -167 -101 -82 -91 -77 25 -74 -1575 l3
-1419 28 -57 c32 -64 80 -111 146 -142 l46 -21 2335 0 2335 0 46 21 c66 31
114 78 146 142 l28 57 3 1419 c2 1246 0 1426 -13 1472 -20 69 -96 153 -167
185 l-53 24 -2300 1 c-1265 1 -2319 -2 -2342 -6z m4577 -440 l0 -150 -2260 0
-2260 0 0 150 0 150 2260 0 2260 0 0 -150z m0 -1515 l0 -1065 -2260 0 -2260 0
0 1065 0 1065 2260 0 2260 0 0 -1065z"/>
<path d="M1655 1911 c-90 -26 -162 -69 -236 -141 -107 -105 -163 -238 -163
-390 0 -305 246 -550 552 -550 215 0 415 129 503 324 l34 76 712 2 c701 3 712
3 739 24 50 37 68 70 68 124 0 35 -6 59 -20 78 -28 36 -82 72 -110 72 -22 0
-22 2 -26 139 -3 122 -6 143 -24 167 -70 94 -189 96 -251 4 -21 -30 -23 -44
-23 -171 l0 -139 -149 0 -148 0 -5 83 c-7 133 -54 192 -153 192 -99 0 -144
-57 -153 -190 l-5 -85 -226 0 -226 1 -42 87 c-67 142 -174 236 -326 287 -93
31 -228 33 -322 6z m255 -302 c150 -68 197 -250 97 -381 -63 -83 -175 -117
-279 -86 -53 16 -132 88 -153 140 -51 124 8 274 130 329 55 25 147 24 205 -2z"/>
</g>
</svg>
