<?xml version="1.0" standalone="no"?>
<!DOCTYPE svg PUBLIC "-//W3C//DTD SVG 20010904//EN"
 "http://www.w3.org/TR/2001/REC-SVG-20010904/DTD/svg10.dtd">
<svg version="1.0" xmlns="http://www.w3.org/2000/svg"
 width="512.000000pt" height="512.000000pt" viewBox="0 0 512.000000 512.000000"
 preserveAspectRatio="xMidYMid meet">

<g transform="translate(0.000000,512.000000) scale(0.100000,-0.100000)"
fill="#000000" stroke="none">
<path d="M2350 5105 c-237 -33 -475 -127 -664 -263 -95 -68 -117 -96 -123
-153 -8 -87 58 -159 146 -159 41 0 59 8 146 66 236 158 433 219 705 219 273 0
471 -62 704 -219 87 -58 104 -66 146 -66 89 0 155 72 147 159 -6 57 -28 85
-123 153 -299 218 -702 315 -1084 263z"/>
<path d="M2435 4513 c-182 -29 -341 -101 -483 -221 -69 -58 -85 -91 -80 -159
7 -80 65 -133 145 -133 43 0 75 17 163 89 66 52 175 102 268 120 167 34 363
-16 498 -125 80 -66 115 -84 157 -84 80 0 138 53 145 133 5 68 -11 101 -80
159 -177 149 -357 218 -583 223 -66 2 -133 1 -150 -2z"/>
<path d="M2493 3901 c-47 -22 -83 -79 -83 -131 0 -74 76 -150 150 -150 71 0
150 77 150 146 0 16 -9 48 -20 72 -15 33 -29 47 -62 62 -54 24 -82 25 -135 1z"/>
<path d="M252 3319 c-60 -12 -139 -57 -171 -98 -62 -79 -66 -93 -69 -273 l-4
-168 2552 0 2552 0 -4 168 c-3 151 -5 171 -26 210 -47 89 -122 143 -223 162
-64 12 -4544 12 -4607 -1z"/>
<path d="M10 1358 l0 -1123 28 -60 c31 -64 77 -111 145 -147 l42 -23 2335 0
2335 0 42 23 c64 34 111 80 141 136 l27 51 3 1133 2 1132 -2550 0 -2550 0 0
-1122z m1985 444 c148 -54 275 -179 330 -324 l18 -48 228 0 229 0 0 73 c0 121
51 194 141 204 54 5 104 -19 137 -67 19 -28 22 -46 22 -121 l0 -89 150 0 150
0 0 123 c0 108 3 128 23 167 28 55 63 81 118 87 54 5 104 -19 137 -67 20 -30
22 -44 22 -170 l0 -137 39 -7 c78 -12 128 -80 118 -162 -6 -55 -30 -90 -77
-115 -33 -18 -73 -19 -735 -19 l-700 -1 -42 -87 c-163 -343 -612 -419 -882
-149 -71 71 -132 182 -151 274 -18 85 -8 223 22 304 61 165 203 295 378 345
71 21 251 13 325 -14z"/>
<path d="M1702 1509 c-53 -27 -115 -96 -130 -147 -50 -168 67 -332 238 -332
172 0 288 164 238 334 -16 55 -101 140 -154 155 -64 18 -144 13 -192 -10z"/>
</g>
</svg>
